<?xml version="1.0" encoding="UTF-8"?>
<!DOCTYPE svg PUBLIC "-//W3C//DTD SVG 1.1//EN" "http://www.w3.org/Graphics/SVG/1.1/DTD/svg11.dtd">
<svg xmlns="http://www.w3.org/2000/svg" version="1.1" width="32px" height="32px" style="shape-rendering:geometricPrecision; text-rendering:geometricPrecision; image-rendering:optimizeQuality; fill-rule:evenodd; clip-rule:evenodd" xmlns:xlink="http://www.w3.org/1999/xlink">
<g><path style="opacity:1" fill="#090909" d="M -0.5,-0.5 C 10.1667,-0.5 20.8333,-0.5 31.5,-0.5C 31.5,10.1667 31.5,20.8333 31.5,31.5C 20.8333,31.5 10.1667,31.5 -0.5,31.5C -0.5,20.8333 -0.5,10.1667 -0.5,-0.5 Z"/></g>
<g><path style="opacity:1" fill="#53a9a9" d="M 27.5,13.5 C 28.7416,15.3888 28.7416,17.3888 27.5,19.5C 24.3241,19.6702 22.3241,21.3369 21.5,24.5C 20.1861,23.6872 19.0195,22.6872 18,21.5C 17.6121,22.428 16.9454,23.0946 16,23.5C 12.0316,20.6992 8.53155,17.3659 5.5,13.5C 6.62826,12.7379 7.79492,12.0712 9,11.5C 9.28961,9.95594 9.95627,8.62261 11,7.5C 13.7193,10.9222 16.8859,13.4222 20.5,15C 18.6487,13.3163 16.982,11.4829 15.5,9.5C 15.8333,9.16667 16.1667,8.83333 16.5,8.5C 19.9069,11.6184 23.4069,14.6184 27,17.5C 27.49,16.2068 27.6567,14.8734 27.5,13.5 Z"/></g>
<g><path style="opacity:1" fill="#e9eded" d="M 27.5,13.5 C 27.6567,14.8734 27.49,16.2068 27,17.5C 23.4069,14.6184 19.9069,11.6184 16.5,8.5C 16.1667,8.83333 15.8333,9.16667 15.5,9.5C 16.982,11.4829 18.6487,13.3163 20.5,15C 16.8859,13.4222 13.7193,10.9222 11,7.5C 9.95627,8.62261 9.28961,9.95594 9,11.5C 7.79492,12.0712 6.62826,12.7379 5.5,13.5C 8.53155,17.3659 12.0316,20.6992 16,23.5C 16.9454,23.0946 17.6121,22.428 18,21.5C 19.0195,22.6872 20.1861,23.6872 21.5,24.5C 22.3241,21.3369 24.3241,19.6702 27.5,19.5C 23.9825,26.5169 18.3158,29.0169 10.5,27C 3.5114,22.8722 1.67807,17.0389 5,9.5C 9.91622,4.27957 15.7496,3.11291 22.5,6C 25.1998,7.85673 26.8665,10.3567 27.5,13.5 Z"/></g>
</svg>
