<?xml version="1.0" encoding="UTF-8"?>
<svg version="1.1" xmlns="http://www.w3.org/2000/svg" width="32" height="32">
<path d="M0 0 C0.66 0.66 1.32 1.32 2 2 C3.11375 2.103125 4.2275 2.20625 5.375 2.3125 C9.85612854 3.16236921 10.48998523 4.31864501 13 8 C13.9075 8.845625 14.815 9.69125 15.75 10.5625 C18 13 18 13 18 17 C17.01 17.33 16.02 17.66 15 18 C14.26676204 20.01508358 14.26676204 20.01508358 14 22 C13.01 22 12.02 22 11 22 C11 21.34 11 20.68 11 20 C9.68 20 8.36 20 7 20 C2.66825307 20 0.77646347 17.34177417 -2.1875 14.5 C-2.74630859 13.97535156 -3.30511719 13.45070313 -3.88085938 12.91015625 C-5.26015364 11.61338387 -6.63090644 10.30753741 -8 9 C-6.625 7.5 -6.625 7.5 -5 6 C-4.34 6 -3.68 6 -3 6 C-2.01 4.02 -1.02 2.04 0 0 Z M10 15 C9.67 15.66 9.34 16.32 9 17 C9.99 16.67 10.98 16.34 12 16 C11.34 15.67 10.68 15.34 10 15 Z " fill="#4BA5A3" transform="translate(11,4)"/>
<path d="M0 0 C0.66 0.66 1.32 1.32 2 2 C3.11375 2.103125 4.2275 2.20625 5.375 2.3125 C9.85612854 3.16236921 10.48998523 4.31864501 13 8 C13.9075 8.845625 14.815 9.69125 15.75 10.5625 C18 13 18 13 18 17 C17.01 17.33 16.02 17.66 15 18 C14.26676204 20.01508358 14.26676204 20.01508358 14 22 C13.01 22 12.02 22 11 22 C11 21.34 11 20.68 11 20 C10.01 19.67 9.02 19.34 8 19 C9 17 9 17 12 16 C11.67 14.35 11.34 12.7 11 11 C9.35 11 7.7 11 6 11 C6 9.68 6 8.36 6 7 C5.360625 6.87625 4.72125 6.7525 4.0625 6.625 C3.381875 6.41875 2.70125 6.2125 2 6 C1.67 5.34 1.34 4.68 1 4 C0.67 4.66 0.34 5.32 0 6 C-0.66 6 -1.32 6 -2 6 C-1.34 4.02 -0.68 2.04 0 0 Z " fill="#5B9FA1" transform="translate(11,4)"/>
<path d="M0 0 C0.99 0.33 1.98 0.66 3 1 C3 1.66 3 2.32 3 3 C4.65 3 6.3 3 8 3 C8.66 4.32 9.32 5.64 10 7 C7.32521756 8.6627026 5.0004856 9.99983813 2 11 C2 10.34 2 9.68 2 9 C1.01 8.67 0.02 8.34 -1 8 C-0.67 5.36 -0.34 2.72 0 0 Z " fill="#43A7A7" transform="translate(14,12)"/>
<path d="M0 0 C1.1055189 0.93590504 2.20935453 1.87379858 3.3125 2.8125 C3.92738281 3.33457031 4.54226562 3.85664062 5.17578125 4.39453125 C8.51952278 7.3373102 8.51952278 7.3373102 10 9 C10 9.66 10 10.32 10 11 C8.68 11 7.36 11 6 11 C6 9.68 6 8.36 6 7 C5.360625 6.87625 4.72125 6.7525 4.0625 6.625 C3.381875 6.41875 2.70125 6.2125 2 6 C1.67 5.34 1.34 4.68 1 4 C0.67 4.66 0.34 5.32 0 6 C-0.66 6 -1.32 6 -2 6 C-1.34 4.02 -0.68 2.04 0 0 Z " fill="#87C1C1" transform="translate(11,4)"/>
<path d="M0 0 C0.33 0.99 0.66 1.98 1 3 C1.99 3 2.98 3 4 3 C4 2.34 4 1.68 4 1 C4.66 1 5.32 1 6 1 C5.67 1.99 5.34 2.98 5 4 C4.01 4.33 3.02 4.66 2 5 C1.26676204 7.01508358 1.26676204 7.01508358 1 9 C0.01 9 -0.98 9 -2 9 C-2 8.34 -2 7.68 -2 7 C-2.99 6.67 -3.98 6.34 -5 6 C-4 4 -4 4 -1 3 C-0.67 2.01 -0.34 1.02 0 0 Z " fill="#8AC1C0" transform="translate(24,17)"/>
<path d="M0 0 C0.99 0.33 1.98 0.66 3 1 C4.23867161 3.61497339 5.08503983 6.25511949 6 9 C2.2047869 7.50902342 0.38957269 5.24299151 -2 2 C-1.34 1.34 -0.68 0.68 0 0 Z " fill="#8DBDBB" transform="translate(5,10)"/>
<path d="M0 0 C1.32 0.66 2.64 1.32 4 2 C3.67 2.99 3.34 3.98 3 5 C0.4375 6.1875 0.4375 6.1875 -2 7 C-2 6.01 -2 5.02 -2 4 C-1.34 4 -0.68 4 0 4 C0 2.68 0 1.36 0 0 Z " fill="#5FA7A8" transform="translate(20,15)"/>
<path d="M0 0 C3 1 3 1 3 1 Z " fill="#AAFFAA" transform="translate(27,3)"/>
<path d="" fill="#FEFE7F" transform="translate(0,0)"/>
<path d="M0 0 C2 1 2 1 2 1 Z " fill="#FFFFFF" transform="translate(17,27)"/>
<path d="M0 0 C2 1 2 1 2 1 Z " fill="#FFFF7F" transform="translate(2,25)"/>
<path d="" fill="#FFFFFF" transform="translate(0,0)"/>
<path d="M0 0 C2 1 2 1 2 1 Z " fill="#FFFFFF" transform="translate(28,5)"/>
<path d="" fill="#FFFEFF" transform="translate(0,0)"/>
<path d="" fill="#01FFFF" transform="translate(0,0)"/>
<path d="" fill="#FFFEFF" transform="translate(0,0)"/>
<path d="" fill="#FFFFFF" transform="translate(0,0)"/>
<path d="" fill="#FFFEFF" transform="translate(0,0)"/>
<path d="" fill="#FFFFFE" transform="translate(0,0)"/>
<path d="" fill="#FFFFFF" transform="translate(0,0)"/>
<path d="" fill="#00FEFF" transform="translate(0,0)"/>
<path d="" fill="#01FFFF" transform="translate(0,0)"/>
<path d="" fill="#FFFFFF" transform="translate(0,0)"/>
<path d="" fill="#FFFFFF" transform="translate(0,0)"/>
<path d="" fill="#00FFFF" transform="translate(0,0)"/>
<path d="" fill="#FF0000" transform="translate(0,0)"/>
<path d="" fill="#FEFEFF" transform="translate(0,0)"/>
<path d="" fill="#00FF00" transform="translate(0,0)"/>
<path d="" fill="#FF00FF" transform="translate(0,0)"/>
<path d="" fill="#FFFFFE" transform="translate(0,0)"/>
<path d="" fill="#FFFFFF" transform="translate(0,0)"/>
<path d="" fill="#00FEFF" transform="translate(0,0)"/>
<path d="" fill="#FFFFFF" transform="translate(0,0)"/>
<path d="" fill="#FFFFFE" transform="translate(0,0)"/>
<path d="" fill="#FFFFFF" transform="translate(0,0)"/>
<path d="" fill="#FF00FF" transform="translate(0,0)"/>
<path d="" fill="#FFFFFF" transform="translate(0,0)"/>
<path d="" fill="#FFFFFF" transform="translate(0,0)"/>
<path d="" fill="#FFFFFF" transform="translate(0,0)"/>
<path d="" fill="#FFFFFF" transform="translate(0,0)"/>
<path d="" fill="#FFFFFF" transform="translate(0,0)"/>
<path d="" fill="#FFFFFF" transform="translate(0,0)"/>
<path d="" fill="#FFFFFF" transform="translate(0,0)"/>
<path d="" fill="#FFFFFF" transform="translate(0,0)"/>
<path d="" fill="#FEFF00" transform="translate(0,0)"/>
<path d="" fill="#00FFFF" transform="translate(0,0)"/>
<path d="" fill="#FFFFFF" transform="translate(0,0)"/>
<path d="" fill="#FF01FF" transform="translate(0,0)"/>
<path d="" fill="#FFFFFE" transform="translate(0,0)"/>
<path d="" fill="#FFFFFF" transform="translate(0,0)"/>
<path d="" fill="#FFFF01" transform="translate(0,0)"/>
<path d="" fill="#FFFFFF" transform="translate(0,0)"/>
</svg>
