<?xml version="1.0" encoding="UTF-8"?>
<svg version="1.1" xmlns="http://www.w3.org/2000/svg" width="32" height="32">
<path d="M0 0 C10.56 0 21.12 0 32 0 C32 10.56 32 21.12 32 32 C21.44 32 10.88 32 0 32 C0 21.44 0 10.88 0 0 Z " fill="#FEFEFE" transform="translate(0,0)"/>
<path d="M0 0 C0.86625 0.495 0.86625 0.495 1.75 1 C4.19883862 2.27075898 4.19883862 2.27075898 8 2 C10.07285461 3.78334978 11.89299632 5.51627166 13.75 7.5 C14.25660156 8.02464844 14.76320313 8.54929687 15.28515625 9.08984375 C16.53265087 10.38441363 17.76757307 11.6910776 19 13 C18 15 18 15 16.0625 15.875 C13.57998766 17.22909764 13.03128603 18.42178493 12 21 C10.68 19.68 9.36 18.36 8 17 C7.67 17.99 7.34 18.98 7 20 C3.09714233 18.41332422 0.66479018 15.86649519 -2.25 12.875 C-3.14203125 11.96492188 -4.0340625 11.05484375 -4.953125 10.1171875 C-5.62859375 9.41851562 -6.3040625 8.71984375 -7 8 C-6 6 -6 6 -4.0625 5.125 C-1.57998766 3.77090236 -1.03128603 2.57821507 0 0 Z " fill="#5AAEAE" transform="translate(11,5)"/>
<path d="M0 0 C3.90285767 1.58667578 6.33520982 4.13350481 9.25 7.125 C10.14203125 8.03507813 11.0340625 8.94515625 11.953125 9.8828125 C12.62859375 10.58148438 13.3040625 11.28015625 14 12 C13 14 13 14 11.0625 14.875 C8.57998766 16.22909764 8.03128603 17.42178493 7 20 C6.01 19.34 5.02 18.68 4 18 C4 17.01 4 16.02 4 15 C5.32 14.34 6.64 13.68 8 13 C6.59155282 9.78475695 4.89655214 7.67816132 2.375 5.25 C1.74335938 4.63640625 1.11171875 4.0228125 0.4609375 3.390625 C-0.02117188 2.93171875 -0.50328125 2.4728125 -1 2 C-0.67 1.34 -0.34 0.68 0 0 Z " fill="#4CA7A6" transform="translate(16,6)"/>
</svg>
